<svg width="81" height="65" viewBox="0 0 81 65" fill="none" xmlns="http://www.w3.org/2000/svg">
<path d="M44.8591 57.0263L49.1687 63.9978C51.6186 62.5158 80.0047 51.9317 79.9982 24.8611C79.9965 17.7207 79.6511 0.99056 61.0133 0.995006C49.7763 0.997686 47.0172 11.151 47.018 14.42C47.0232 36.1476 68.491 28.4094 68.491 28.4094C68.4953 46.2161 48.6143 54.9317 44.8591 57.0263Z" fill="#EFEFEF"/>
<path d="M1.00591 57.0368L5.2754 64.0083C7.7052 62.5263 36.1214 51.9422 36.1149 24.8716C36.1132 17.7312 35.7678 1.00103 17.1199 1.00548C5.89301 1.00815 3.13389 11.1615 3.13467 14.4305C3.13986 36.1581 24.6077 28.4199 24.6077 28.4199C24.6119 46.2266 4.6908 54.9421 1.00591 57.0368Z" fill="#EFEFEF"/>
</svg>
