<svg width="81" height="65" viewBox="0 0 81 65" fill="none" xmlns="http://www.w3.org/2000/svg">
<path d="M36.4693 7.91738L32.2533 0.888848C29.7838 2.33797 1.25876 12.5416 0.903286 39.6098C0.80952 46.7497 0.931224 63.4829 19.5675 63.7277C30.8034 63.8752 33.6981 53.7597 33.741 50.491C34.0263 28.7653 12.4569 36.2157 12.4569 36.2157C12.6908 18.4106 32.6865 9.96163 36.4693 7.91738Z" fill="#EFEFEF"/>
<path d="M80.3187 8.49324L76.1428 1.46524C73.6934 2.91462 45.1383 13.1179 44.7828 40.1861C44.6891 47.3259 44.8108 64.0592 63.457 64.3041C74.683 64.4515 77.5776 54.3359 77.6205 51.0672C77.9058 29.3416 56.3365 36.792 56.3365 36.792C56.5703 18.9868 76.6062 10.5384 80.3187 8.49324Z" fill="#EFEFEF"/>
</svg>
